<?xml version="1.0" standalone="no"?>
<!DOCTYPE svg PUBLIC "-//W3C//DTD SVG 20010904//EN"
 "http://www.w3.org/TR/2001/REC-SVG-20010904/DTD/svg10.dtd">
<svg version="1.0" xmlns="http://www.w3.org/2000/svg"
 width="400.000000pt" height="400.000000pt" viewBox="0 0 400.000000 400.000000"
 preserveAspectRatio="xMidYMid meet">
<metadata>
Created by potrace 1.11, written by Peter Selinger 2001-2013
</metadata>
<g transform="translate(0.000000,400.000000) scale(0.100000,-0.100000)"
fill="#000000" stroke="none">
<path d="M1791 3705 c-380 -55 -704 -211 -970 -469 -213 -208 -355 -429 -445
-696 -213 -634 -56 -1312 414 -1780 69 -69 168 -156 220 -193 180 -128 439
-238 680 -289 140 -29 484 -33 625 -6 719 136 1255 657 1405 1363 27 128 38
398 21 542 -46 391 -216 747 -486 1019 -269 270 -580 435 -945 498 -135 24
-390 29 -519 11z m89 -215 c0 -5 -8 -10 -17 -11 -11 0 -13 -3 -5 -6 6 -2 12
-11 12 -19 0 -12 12 -15 53 -14 28 0 76 -3 105 -8 28 -5 52 -5 52 0 0 4 -5 8
-12 8 -6 0 -9 2 -6 5 7 7 140 -25 153 -36 5 -5 17 -9 27 -9 10 0 18 -4 18 -10
0 -5 6 -7 13 -4 15 5 67 -32 67 -48 0 -15 40 -68 51 -68 6 0 1 15 -10 34 -23
37 -19 75 5 55 8 -6 14 -17 14 -25 0 -7 9 -15 20 -19 10 -3 30 -18 42 -34 13
-15 32 -30 41 -34 15 -6 17 -3 11 16 -3 12 -13 35 -21 50 -8 16 -12 31 -9 35
4 3 -4 16 -16 29 -12 13 -22 32 -23 43 -2 24 -5 26 66 -60 62 -75 80 -105 73
-124 -3 -7 5 -39 17 -72 24 -66 46 -98 34 -49 -12 47 -14 95 -4 89 5 -3 28
-30 50 -61 24 -31 53 -59 70 -65 16 -5 29 -15 29 -21 0 -8 3 -8 12 1 8 8 8 15
-2 29 -11 14 -11 15 -1 6 7 -6 19 -9 26 -7 16 6 55 -54 100 -153 21 -46 42
-80 47 -76 17 10 3 96 -25 155 -15 31 -24 64 -21 73 4 10 2 15 -7 13 -7 -2
-14 6 -16 17 -3 15 -2 16 5 7 5 -8 13 -13 18 -11 5 1 22 -17 39 -42 16 -24 41
-55 56 -69 15 -14 37 -49 50 -77 22 -51 42 -72 32 -34 -7 26 24 36 37 11 5
-10 10 -27 10 -38 0 -17 30 -36 52 -33 4 0 12 -15 18 -33 6 -19 18 -40 26 -46
9 -8 14 -32 14 -67 0 -36 4 -55 14 -59 19 -7 50 -79 43 -104 -3 -11 -1 -20 4
-20 5 0 9 -6 9 -13 0 -7 14 -18 30 -24 l30 -11 -26 -74 c-29 -81 -44 -105 -54
-88 -4 7 -13 3 -24 -9 -16 -18 -20 -18 -33 -5 -16 15 -16 13 27 122 21 54 12
63 -14 14 -31 -59 -106 -125 -106 -92 0 6 -6 9 -12 8 -16 -4 -14 8 11 96 12
39 16 65 10 59 -6 -6 -17 -10 -23 -9 -6 2 -8 1 -3 -1 13 -8 7 -23 -7 -17 -8 3
-18 -7 -25 -28 -7 -18 -19 -46 -27 -63 l-15 -30 6 30 c4 20 3 27 -4 20 -19
-19 -80 -128 -76 -135 8 -13 -34 -43 -51 -36 -11 4 -27 -3 -45 -20 -23 -22
-31 -25 -43 -15 -12 10 -7 22 30 77 24 36 44 71 44 77 0 7 -4 6 -10 -3 -8 -13
-10 -12 -10 4 0 11 -15 -10 -32 -45 -32 -62 -62 -91 -51 -50 3 12 1 21 -5 21
-11 0 -27 48 -22 65 1 6 2 19 2 29 -1 10 8 36 19 57 24 48 25 67 3 48 -15 -12
-16 -11 -10 9 11 34 -6 26 -32 -16 -21 -34 -26 -60 -10 -55 12 4 -1 -39 -18
-58 -23 -25 -34 -15 -27 25 7 44 -11 55 -43 25 l-24 -22 0 33 0 33 -25 -23
c-25 -23 -25 -23 -39 -4 -8 10 -12 23 -9 29 3 5 0 5 -7 -2 -7 -6 -19 -9 -26
-6 -8 3 -14 -1 -14 -11 0 -47 -95 -184 -123 -178 -13 3 -16 9 -12 20 4 10 8
24 9 32 1 8 14 34 30 58 16 23 26 45 22 49 -4 4 -9 -3 -13 -15 -4 -15 -18 -25
-47 -34 -22 -6 -45 -15 -50 -20 -15 -13 -26 -10 -26 8 0 8 -4 12 -10 9 -5 -3
-10 2 -10 12 -1 17 -2 16 -16 -2 -15 -19 -15 -19 -8 10 l7 30 -23 -28 c-17
-22 -20 -31 -11 -37 7 -4 13 -11 13 -16 0 -5 3 -15 6 -22 2 -7 0 -18 -6 -24
-17 -17 -83 -40 -112 -40 -14 0 -35 -9 -47 -21 -19 -17 -23 -18 -23 -4 0 9 5
19 10 22 8 5 8 11 0 20 -8 9 -6 14 7 19 57 19 109 76 70 76 -10 0 -13 8 -10
28 4 25 2 24 -19 -10 -19 -31 -29 -38 -55 -38 -23 0 -33 -5 -33 -15 0 -28 -73
-19 -115 15 -43 34 -50 36 -41 15 6 -16 -15 -16 -64 0 -11 4 -20 2 -20 -4 0
-18 -39 -22 -69 -6 -34 17 -47 16 -43 -2 4 -19 -13 -16 -68 14 -53 28 -63 43
-31 43 11 0 23 5 26 10 9 14 -22 24 -38 13 -6 -5 -22 -8 -34 -7 -12 0 -24 -5
-27 -12 -3 -8 -12 -11 -21 -8 -8 3 -15 1 -15 -5 0 -16 -27 -2 -34 17 -3 9 -17
34 -30 55 -18 30 -25 35 -30 22 -6 -17 4 -42 37 -87 12 -15 17 -31 13 -35 -4
-4 -12 -1 -16 8 -6 10 -20 15 -35 14 -14 -2 -27 1 -30 5 -3 5 -12 7 -20 4 -13
-5 -13 -10 1 -35 23 -46 0 -34 -37 19 -18 26 -43 56 -56 65 -21 16 -23 17 -23
1 0 -9 11 -38 25 -66 14 -27 25 -54 25 -60 0 -22 -30 16 -59 73 -28 56 -29 57
-28 24 0 -18 4 -32 8 -29 4 2 4 -8 0 -23 -5 -17 -14 -26 -22 -24 -8 2 -25 5
-38 6 -20 1 -27 10 -38 51 -7 27 -18 80 -24 118 -7 44 -17 75 -27 82 -15 11
-17 9 -20 -10 -4 -30 31 -176 62 -259 22 -60 23 -66 7 -57 -11 5 -29 34 -42
65 -12 30 -26 55 -30 55 -16 0 1 -105 24 -152 19 -38 21 -48 9 -46 -25 5 -51
49 -82 138 -31 91 -55 120 -39 49 5 -23 8 -44 5 -46 -2 -3 -10 22 -16 54 -20
97 -29 106 -29 30 -1 -50 -4 -68 -13 -65 -29 10 -39 52 -32 128 3 41 7 98 9
126 3 66 11 90 43 137 16 24 28 34 32 26 9 -13 47 21 68 61 12 22 11 27 -8 42
-17 14 -19 21 -11 35 10 16 10 16 11 -3 0 -36 29 -38 48 -4 12 20 22 28 34 24
20 -6 52 40 68 98 7 25 15 35 24 32 9 -3 17 5 22 23 7 25 9 22 14 -27 5 -55
22 -75 28 -32 8 56 30 -2 23 -63 0 -5 6 0 15 13 23 31 35 28 28 -8 -7 -34 2
-39 22 -12 13 16 13 16 14 0 0 -34 40 -10 40 24 0 10 4 18 9 18 5 0 12 7 15
16 3 8 2 12 -4 9 -6 -3 -10 3 -10 14 0 11 4 22 9 25 4 3 21 40 36 83 45 129
48 125 45 -59 -1 -56 3 -88 9 -88 6 0 11 3 11 8 0 4 7 54 15 111 22 152 40
209 84 259 43 49 58 54 36 12 -37 -72 -3 -66 55 10 25 33 50 58 57 55 7 -2 34
14 60 35 47 39 73 50 73 30z m206 0 c15 -6 24 -13 22 -16 -8 -8 -58 7 -58 17
0 11 3 11 36 -1z m-56 -24 c0 -3 -4 -8 -10 -11 -5 -3 -10 -1 -10 4 0 6 5 11
10 11 6 0 10 -2 10 -4z m295 -66 c3 -5 2 -10 -4 -10 -5 0 -13 5 -16 10 -3 6
-2 10 4 10 5 0 13 -4 16 -10z m377 -133 c14 -5 14 -1 -4 31 l-22 37 42 -43
c23 -25 38 -50 35 -58 -3 -8 3 -26 12 -42 11 -16 -1 -7 -28 21 -26 26 -51 47
-56 47 -5 0 -21 17 -36 38 l-28 37 34 -31 c19 -17 42 -34 51 -37z m-1682 -46
c0 -3 -8 -11 -18 -18 -15 -9 -19 -8 -19 3 0 7 4 11 9 8 11 -7 10 3 -3 29 -12
22 -12 22 10 3 11 -11 21 -22 21 -25z m1645 19 c16 -17 16 -20 3 -15 -9 4 -19
13 -22 21 -7 19 -2 18 19 -6z m-45 -11 c0 -6 -4 -7 -10 -4 -5 3 -10 11 -10 16
0 6 5 7 10 4 6 -3 10 -11 10 -16z m-1681 -92 c-19 -18 -42 -51 -52 -74 -10
-22 -31 -47 -47 -56 -15 -9 -35 -33 -44 -52 -11 -22 -24 -35 -36 -35 -12 0
-31 -21 -56 -62 -20 -35 -49 -76 -64 -93 -42 -46 -83 -123 -77 -145 3 -11 1
-20 -4 -20 -30 0 7 89 65 159 19 23 34 47 32 54 -1 7 -1 9 1 5 3 -4 25 24 51
62 31 47 49 66 54 57 7 -11 9 -10 12 12 1 11 76 93 76 84 0 -4 8 7 18 25 20
38 94 124 101 117 2 -3 -11 -20 -30 -38z m1824 -25 c3 -15 4 -28 2 -30 -4 -5
-55 70 -55 81 0 19 48 -27 53 -51z m297 -74 c0 -7 14 -25 32 -40 18 -14 30
-30 25 -34 -4 -4 -16 1 -28 12 -27 24 -53 74 -39 74 5 0 10 -6 10 -12z m121
-141 c-10 -9 -11 -8 -5 6 3 10 9 15 12 12 3 -3 0 -11 -7 -18z m129 -70 c0 -10
-4 -15 -10 -12 -5 3 -10 18 -10 33 0 21 2 24 10 12 5 -8 10 -23 10 -33z
m-2423 -61 c-15 -22 -72 -32 -83 -15 -3 5 1 9 9 9 7 0 24 11 37 25 18 19 26
22 37 13 11 -9 11 -14 0 -32z m2398 -59 c-11 -50 -25 -56 -25 -11 0 43 7 57
22 48 5 -3 6 -20 3 -37z m77 -179 c-9 -9 -12 -1 -11 33 l1 44 11 -33 c7 -24 7
-36 -1 -44z m-2852 -70 c-15 -16 -20 -36 -20 -75 0 -29 3 -53 8 -53 4 0 8 -24
8 -53 2 -61 19 -100 72 -160 20 -23 25 -33 12 -21 -42 35 -54 39 -36 12 9 -14
13 -28 9 -31 -10 -10 27 -47 70 -68 30 -16 45 -18 73 -10 26 7 80 2 227 -20
194 -30 244 -33 240 -13 -3 15 89 13 102 -3 13 -16 69 31 61 52 -4 12 4 15 37
16 l42 1 -35 13 c-27 10 -30 14 -13 14 12 1 24 5 27 10 3 5 25 5 49 0 24 -4
60 -4 80 1 21 4 46 6 57 3 11 -3 27 0 35 7 11 10 18 10 29 1 8 -7 25 -9 40 -5
31 7 32 -3 8 -59 l-17 -39 -33 32 c-26 25 -36 29 -47 20 -8 -7 -29 -9 -49 -6
-21 4 -36 2 -36 -4 0 -6 21 -10 48 -10 26 -1 62 -9 81 -19 33 -17 34 -21 38
-81 1 -34 12 -82 23 -107 11 -25 20 -49 20 -54 0 -11 -54 -12 -64 -1 -4 4 -28
8 -52 8 -26 1 -52 8 -63 18 -13 11 -21 14 -26 7 -3 -6 -15 -11 -25 -11 -19 0
-26 19 -32 95 l-3 30 -530 -2 c-291 -1 -514 2 -495 5 l35 7 8 130 c4 72 9 195
11 275 5 162 6 171 18 164 4 -3 8 0 8 6 0 6 4 8 10 5 6 -4 2 -15 -10 -27z
m304 -23 c4 -19 3 -25 -3 -15 -4 8 -11 29 -15 45 -4 19 -3 25 3 15 4 -8 11
-28 15 -45z m-38 -77 c13 -51 25 -101 28 -110 2 -9 -1 -15 -8 -12 -11 4 -43
105 -48 154 -2 14 -7 23 -13 20 -9 -5 -9 -58 2 -95 5 -18 3 -18 -10 -5 -8 8
-17 36 -21 62 -5 40 -2 51 16 68 12 11 24 18 26 15 3 -3 16 -47 28 -97z m2794
-82 c0 -6 -7 -1 -15 10 -8 10 -15 23 -15 28 0 6 7 1 15 -10 8 -10 15 -23 15
-28z m-2401 18 c17 -8 36 -24 41 -35 13 -24 3 -25 -23 -1 -19 16 -19 16 -13
-5 15 -47 -24 -20 -43 30 -12 31 -6 33 38 11z m1151 -41 c0 -20 -28 -53 -46
-53 -24 0 -25 19 -2 43 27 29 48 34 48 10z m-1175 -91 c-3 -3 -5 0 -5 7 0 7
-4 9 -10 6 -12 -7 -12 -3 -3 21 6 15 7 14 15 -6 5 -13 6 -25 3 -28z m1755 4
c0 -3 -4 -8 -10 -11 -5 -3 -10 -1 -10 4 0 6 5 11 10 11 6 0 10 -2 10 -4z m667
-28 c-3 -8 -6 -5 -6 6 -1 11 2 17 5 13 3 -3 4 -12 1 -19z m-26 -86 c-15 -5
-14 -35 1 -50 9 -9 9 -12 -2 -13 -10 0 -7 -4 5 -9 17 -7 17 -9 3 -9 -31 -2
-19 -21 12 -21 17 0 30 -4 30 -9 0 -6 -8 -9 -17 -9 -43 2 -769 -13 -871 -18
-111 -6 -112 -6 -118 -32 -3 -15 -10 -44 -15 -65 l-10 -38 -92 6 c-50 4 -94 8
-96 11 -2 2 -10 -1 -18 -7 -22 -19 -44 7 -32 37 5 14 9 45 9 70 l0 44 48 0
c27 0 52 3 56 8 4 4 58 7 119 8 69 0 135 7 172 17 94 25 258 37 354 26 76 -8
91 -7 150 12 36 12 69 26 72 31 3 5 25 2 50 -6 40 -14 49 -14 103 2 39 11 64
25 75 42 l16 24 3 -24 c2 -13 -1 -26 -7 -28z m-1089 27 c2 -6 27 -14 55 -16
39 -4 52 -10 56 -24 3 -11 20 -26 39 -34 l33 -14 -32 -1 c-18 0 -33 5 -33 10
0 21 -44 28 -73 13 -26 -13 -31 -13 -48 3 -10 9 -19 12 -19 6 0 -5 -18 -13
-41 -17 -23 -4 -43 -14 -47 -23 -4 -12 -9 -6 -18 19 -20 54 -18 62 13 56 18
-3 36 1 52 14 26 21 57 25 63 8z m183 -37 c-3 -3 -11 0 -18 7 -9 10 -8 11 6 5
10 -3 15 -9 12 -12z m130 -2 c3 -5 1 -10 -4 -10 -6 0 -11 5 -11 10 0 6 2 10 4
10 3 0 8 -4 11 -10z m-1445 -20 c0 -5 -2 -10 -4 -10 -3 0 -8 5 -11 10 -3 6 -1
10 4 10 6 0 11 -4 11 -10z m1335 -10 c3 -5 1 -10 -4 -10 -6 0 -11 5 -11 10 0
6 2 10 4 10 3 0 8 -4 11 -10z m-248 -26 c-3 -3 -12 -4 -19 -1 -8 3 -5 6 6 6
11 1 17 -2 13 -5z m1236 -41 c-7 -2 -21 -2 -30 0 -10 3 -4 5 12 5 17 0 24 -2
18 -5z m-1560 -227 c12 -17 28 -25 65 -29 54 -6 122 7 122 25 0 7 19 8 60 4
52 -6 60 -5 60 10 0 12 5 15 23 9 12 -4 39 -7 60 -6 24 1 52 -6 72 -19 39 -24
45 -25 45 -5 0 8 5 15 11 15 6 0 8 -8 4 -19 -8 -25 30 -50 39 -26 8 21 21 18
34 -7 6 -13 11 -17 11 -10 1 7 6 10 11 7 6 -3 10 -1 10 4 0 6 5 11 10 11 6 0
10 -16 10 -35 0 -24 -4 -33 -13 -29 -7 2 -19 -7 -27 -21 -14 -27 -25 -31 -35
-15 -3 6 -11 10 -17 10 -7 0 -7 -5 1 -14 9 -11 7 -15 -9 -19 -31 -8 -80 23
-80 51 0 13 -4 20 -10 17 -5 -3 -10 -21 -10 -39 0 -32 -20 -62 -33 -50 -3 3
-12 2 -19 -2 -7 -5 -29 -9 -48 -10 -61 -4 -130 -27 -130 -44 0 -4 -17 -12 -37
-19 -47 -14 -333 -23 -333 -10 0 5 -9 9 -20 9 -11 0 -28 8 -39 19 -10 10 -40
22 -67 26 -64 11 -68 11 -76 15 -5 1 -11 3 -15 4 -5 1 -27 12 -50 24 -43 22
-58 18 -46 -14 6 -16 3 -16 -21 3 -15 12 -33 20 -41 17 -7 -3 -16 0 -20 6 -6
9 -9 9 -15 -1 -6 -9 -12 -10 -22 -2 -18 14 -67 22 -74 12 -2 -4 -12 -5 -21 -2
-12 5 -5 12 27 27 24 12 46 28 48 36 4 12 2 13 -9 3 -24 -23 -29 -14 -14 24
20 47 18 45 49 34 21 -9 26 -8 26 5 0 10 6 14 14 11 8 -3 16 -1 18 4 2 6 24 1
51 -11 37 -17 51 -19 68 -10 17 9 25 8 41 -7 15 -13 22 -15 25 -5 6 17 28 15
43 -3 14 -17 35 -21 25 -5 -6 11 17 40 32 40 4 0 19 -9 33 -20 31 -25 40 -25
40 -1 0 33 31 47 111 50 28 1 40 -4 52 -23z m636 -154 c-6 -18 -15 -32 -21
-32 -5 0 -7 4 -4 9 3 4 10 21 16 36 14 38 23 26 9 -13z m-342 -270 c30 -56 51
-107 48 -112 -9 -15 -46 -12 -79 5 -15 8 -36 15 -46 15 -39 0 -75 88 -63 154
5 22 44 46 72 43 7 -1 38 -48 68 -105z m-557 46 c0 -31 -52 -139 -76 -158 -32
-27 -90 -49 -104 -40 -8 5 -19 2 -28 -6 -30 -31 -21 -3 35 110 l58 116 57 0
c53 0 58 -2 58 -22z m-1009 -175 c-9 -15 -10 -12 -10 17 0 29 1 32 10 18 7
-12 7 -24 0 -35z m58 -57 c-9 -8 -10 -7 -5 7 3 10 7 24 7 30 1 7 3 4 6 -7 3
-10 -1 -23 -8 -30z m1497 -47 c7 32 8 33 23 14 9 -11 31 -30 50 -43 l33 -23
-7 24 -7 24 23 -21 c13 -12 29 -20 36 -17 6 2 17 -5 23 -16 14 -27 30 -27 30
1 0 20 1 21 20 3 11 -10 20 -26 20 -35 0 -10 7 -24 16 -31 12 -10 15 -25 11
-58 -3 -25 -1 -55 3 -67 7 -17 5 -21 -8 -20 -14 1 -18 -11 -22 -55 -5 -54 -6
-56 -28 -48 -13 5 -29 25 -38 44 -10 26 -20 35 -38 35 -19 0 -26 -8 -36 -45
-13 -46 -64 -98 -72 -74 -3 9 -10 9 -27 0 -19 -11 -25 -10 -36 5 -12 17 -14
16 -33 -16 -25 -40 -45 -45 -90 -24 -26 12 -36 13 -48 3 -12 -9 -20 -9 -40 1
-22 12 -26 11 -40 -8 -16 -24 -39 -20 -30 4 7 19 -20 29 -38 14 -17 -14 -76
-22 -76 -11 0 5 -21 14 -46 21 -44 13 -47 12 -64 -10 -14 -19 -20 -21 -38 -11
-12 7 -22 16 -22 20 0 10 -87 43 -112 42 -10 0 -20 4 -23 10 -4 5 -21 9 -39 9
-23 0 -42 9 -60 27 -21 21 -29 24 -36 14 -4 -8 -13 -10 -20 -6 -8 5 -18 1 -26
-9 -22 -31 -34 -8 -34 65 0 47 -3 68 -11 64 -6 -4 -8 -13 -5 -21 3 -8 2 -14
-3 -14 -4 0 -13 -11 -19 -25 -12 -26 -42 -25 -42 1 0 8 -4 14 -10 14 -5 0 -11
8 -11 18 -1 13 -2 13 -5 2 -3 -8 -16 -20 -29 -27 -23 -10 -25 -9 -25 13 0 14
-6 27 -14 30 -8 3 -18 18 -21 34 -3 16 -13 31 -21 34 -11 4 -13 0 -8 -21 5
-19 3 -24 -7 -21 -15 6 -16 16 -4 63 8 30 8 30 -13 11 -12 -10 -19 -23 -16
-28 4 -6 -2 -7 -15 -3 -14 4 -21 2 -21 -7 0 -8 -5 -6 -11 5 -14 24 -3 83 17
91 19 7 54 -10 54 -27 0 -7 9 -1 19 13 17 21 21 22 36 10 15 -13 20 -11 41 15
l24 30 0 -31 c0 -38 26 -53 45 -27 12 17 14 16 20 -7 4 -17 14 -26 30 -27 14
-2 35 -4 48 -5 12 -1 26 -7 30 -12 5 -7 12 -5 20 7 7 10 18 26 25 35 11 15 12
14 6 -7 -5 -19 -3 -23 10 -18 9 4 16 1 16 -6 1 -7 6 -3 13 9 18 32 54 74 62
74 4 0 5 -11 3 -24 -4 -20 -2 -23 19 -17 13 3 29 17 36 30 18 35 45 50 58 31
8 -11 12 -12 16 -2 9 24 22 12 13 -13 -6 -16 -6 -25 0 -25 6 0 10 5 10 11 0 6
8 9 17 7 10 -2 26 5 35 14 15 15 36 18 118 18 l100 0 0 -47 c0 -25 3 -44 6
-40 4 3 13 0 21 -8 25 -25 35 -16 17 14 -18 30 -14 61 8 61 8 0 9 -3 3 -8 -17
-12 -11 -36 14 -61 27 -27 26 -30 5 39 -4 12 -2 20 5 20 6 0 11 -4 11 -10 0
-9 47 -60 56 -60 3 0 4 21 3 48 -3 43 -1 47 19 46 12 0 22 5 22 13 0 8 5 11
10 8 6 -4 10 6 10 22 0 27 1 27 50 -22 l50 -49 6 33z m838 29 c9 -12 16 -31
16 -42 0 -17 -5 -14 -30 14 -16 19 -29 29 -30 23 0 -7 4 -13 9 -13 5 0 11 -7
14 -14 11 -27 -22 -5 -37 25 -14 29 -14 29 14 29 18 0 35 -8 44 -22z m-2214
-58 c-13 -8 -13 -10 1 -10 9 0 24 9 33 19 15 16 22 17 47 8 22 -9 29 -17 27
-32 -2 -11 -9 -19 -16 -17 -15 3 -16 -10 0 -26 9 -9 6 -12 -15 -12 -17 0 -32
-9 -43 -25 -9 -14 -19 -25 -23 -25 -9 0 -31 58 -27 73 1 7 1 9 -1 4 -10 -16
-23 6 -23 37 0 17 -5 37 -11 43 -6 6 -8 17 -4 23 5 8 17 2 39 -19 26 -26 29
-33 16 -41z m2023 20 c16 0 33 -12 50 -34 22 -28 24 -36 13 -51 -10 -14 -17
-15 -33 -6 -16 8 -23 8 -26 -2 -3 -8 -18 1 -41 25 -38 39 -45 54 -21 45 8 -4
17 -2 20 2 3 5 -2 11 -10 15 -8 3 -15 10 -15 16 0 7 6 8 19 0 11 -5 31 -10 44
-10z m-1623 -10 c0 -5 -5 -10 -11 -10 -5 0 -7 5 -4 10 3 6 8 10 11 10 2 0 4
-4 4 -10z m1527 -41 c0 -13 1 -29 2 -35 1 -6 12 -28 26 -48 l24 -36 -22 0
c-13 0 -28 5 -34 11 -8 8 -18 6 -37 -6 -23 -15 -28 -16 -57 -1 -29 15 -31 14
-36 -4 -7 -25 -23 -16 -23 12 0 17 -3 18 -15 8 -8 -6 -13 -24 -11 -38 2 -15 1
-21 -1 -14 -6 16 -13 15 -35 -4 -16 -16 -18 -15 -25 2 -7 19 -8 59 -2 126 3
34 4 36 19 23 24 -22 33 -18 26 9 -6 24 -5 24 30 14 27 -7 39 -7 44 2 4 7 24
11 46 9 29 -2 38 1 36 11 -2 10 2 10 20 -2 13 -9 24 -26 25 -39z m238 -78 c3
-5 1 -12 -4 -15 -5 -3 -11 1 -15 9 -6 16 9 21 19 6z m-1768 -239 c-14 -17 -22
0 -12 26 5 14 7 14 15 2 5 -9 4 -20 -3 -28z m1377 -109 c4 -10 4 -14 0 -10 -4
4 -14 1 -22 -6 -13 -11 -14 -9 -1 11 17 26 15 26 23 5z m-1398 -35 c4 -6 -3
-4 -16 5 -21 15 -24 15 -42 -6 -19 -21 -15 -5 5 20 10 14 40 3 53 -19z m60
-15 c-7 -7 -46 16 -46 28 0 5 11 2 25 -7 14 -9 24 -19 21 -21z m98 -12 c13 -6
27 -14 30 -20 4 -6 -13 -2 -36 8 -24 10 -50 21 -58 25 -23 9 36 -3 64 -13z
m1011 -11 c3 -5 1 -10 -4 -10 -6 0 -11 5 -11 10 0 6 2 10 4 10 3 0 8 -4 11
-10z m-815 -65 c0 -2 -9 -1 -20 2 -11 3 -20 10 -20 15 0 5 -3 7 -7 5 -5 -3
-17 7 -27 21 -18 24 -17 23 27 -7 26 -17 47 -34 47 -36z m665 36 c-3 -6 -11
-11 -17 -11 -6 0 -6 6 2 15 14 17 26 13 15 -4z m-759 -28 c-7 -7 -26 7 -26 19
0 6 6 6 15 -2 9 -7 13 -15 11 -17z m151 5 c-3 -8 -6 -5 -6 6 -1 11 2 17 5 13
3 -3 4 -12 1 -19z m57 6 c9 -8 16 -21 16 -27 0 -7 -5 -4 -11 6 -5 9 -15 17
-20 17 -6 0 -7 -4 -4 -10 3 -5 0 -7 -9 -4 -12 5 -13 9 -3 20 15 17 13 17 31
-2z m109 -9 c10 -14 16 -25 14 -25 -7 0 -47 37 -47 44 0 13 16 4 33 -19z m157
5 c0 -15 -20 -22 -20 -8 -1 7 -7 2 -15 -12 -17 -29 -19 -22 -5 14 6 17 14 24
25 20 8 -3 15 -10 15 -14z m188 11 c1 -1 2 -4 2 -8 0 -5 -38 -8 -85 -8 -47 -1
-85 2 -85 6 0 4 16 7 36 7 19 0 38 3 42 6 4 5 66 3 90 -3z m-370 -27 c1 -1 -4
-7 -13 -14 -13 -11 -14 -10 -9 4 3 9 1 16 -5 16 -6 0 -11 5 -11 11 0 8 6 7 18
-2 9 -7 18 -14 20 -15z m432 22 c0 -2 -9 -6 -20 -9 -11 -3 -18 -1 -14 4 5 9
34 13 34 5z m-593 -12 c-3 -3 -12 -4 -19 -1 -8 3 -5 6 6 6 11 1 17 -2 13 -5z
m277 -10 c3 -8 2 -12 -4 -9 -6 3 -10 10 -10 16 0 14 7 11 14 -7z"/>
<path d="M1750 3355 c-18 -22 -5 -48 21 -40 16 5 19 4 14 -5 -5 -9 -4 -11 4
-6 14 9 5 26 -15 26 -11 0 -13 6 -9 20 8 24 2 26 -15 5z"/>
<path d="M2500 3221 c0 -5 5 -13 10 -16 6 -3 10 -2 10 4 0 5 -4 13 -10 16 -5
3 -10 2 -10 -4z"/>
<path d="M2730 2826 c0 -8 5 -18 10 -21 6 -3 10 1 10 9 0 8 -4 18 -10 21 -5 3
-10 -1 -10 -9z"/>
<path d="M3104 2825 c9 -44 18 -65 27 -65 5 0 9 10 9 22 0 12 -3 18 -7 14 -4
-3 -13 6 -20 21 -7 16 -11 19 -9 8z"/>
<path d="M2764 2799 c-3 -6 -1 -16 5 -22 8 -8 11 -5 11 11 0 24 -5 28 -16 11z"/>
<path d="M1028 2765 c-12 -20 -21 -145 -10 -145 6 0 14 29 17 64 7 64 4 99 -7
81z"/>
<path d="M960 2675 c-13 -16 -7 -45 10 -45 5 0 10 14 10 30 0 34 -3 36 -20 15z"/>
<path d="M3124 2626 c-9 -24 0 -51 19 -54 19 -4 25 32 7 43 -6 4 -8 11 -5 16
4 5 1 9 -5 9 -6 0 -13 -6 -16 -14z"/>
<path d="M2220 2563 c0 -15 2 -16 11 -3 8 12 9 10 5 -10 -3 -14 -8 -43 -11
-65 l-5 -40 15 45 c9 25 14 54 13 64 -4 25 -28 33 -28 9z"/>
<path d="M3130 2516 c0 -14 5 -26 10 -26 6 0 10 9 10 19 0 11 -4 23 -10 26 -6
4 -10 -5 -10 -19z"/>
<path d="M2406 2479 c-10 -17 -21 -27 -25 -22 -3 5 -11 9 -18 8 -17 0 -60 -50
-55 -64 3 -8 9 -6 18 6 13 16 13 15 4 -10 -13 -36 -13 -37 5 -31 8 3 17 14 20
23 3 10 13 26 23 37 26 28 55 74 50 79 -2 2 -12 -9 -22 -26z"/>
<path d="M1182 2460 c0 -14 2 -19 5 -12 2 6 2 18 0 25 -3 6 -5 1 -5 -13z"/>
<path d="M1676 2423 c-11 -11 -6 -23 9 -23 8 0 15 4 15 9 0 13 -16 22 -24 14z"/>
<path d="M1905 2375 c17 -14 37 -25 45 -25 12 0 12 2 1 9 -9 6 -10 11 -2 15 6
4 16 4 22 0 7 -4 10 -1 7 7 -3 9 -22 15 -54 17 l-49 2 30 -25z"/>
<path d="M2437 2324 c-34 -40 -25 -44 18 -9 19 15 26 28 20 33 -6 6 -21 -4
-38 -24z"/>
<path d="M2010 2330 c8 -5 20 -10 25 -10 6 0 3 5 -5 10 -8 5 -19 10 -25 10 -5
0 -3 -5 5 -10z"/>
<path d="M1430 2034 c0 -8 6 -14 14 -14 8 0 21 -3 30 -6 9 -3 16 -2 16 3 0 5
-13 14 -30 20 -25 9 -30 9 -30 -3z"/>
<path d="M1376 2001 c-4 -7 -5 -15 -2 -18 9 -9 19 4 14 18 -4 11 -6 11 -12 0z"/>
<path d="M2470 1684 c0 -18 32 -41 51 -37 24 7 25 32 2 31 -10 0 -26 3 -35 7
-10 4 -18 4 -18 -1z"/>
<path d="M1500 1656 c0 -9 5 -16 10 -16 6 0 10 4 10 9 0 6 -4 13 -10 16 -5 3
-10 -1 -10 -9z"/>
<path d="M2481 1584 c0 -11 3 -14 6 -6 3 7 2 16 -1 19 -3 4 -6 -2 -5 -13z"/>
<path d="M2370 699 c0 -11 5 -17 10 -14 6 3 10 13 10 21 0 8 -4 14 -10 14 -5
0 -10 -9 -10 -21z"/>
<path d="M2845 1000 c3 -5 11 -10 16 -10 6 0 7 5 4 10 -3 6 -11 10 -16 10 -6
0 -7 -4 -4 -10z"/>
<path d="M2770 980 c0 -5 5 -10 10 -10 6 0 10 5 10 10 0 6 -4 10 -10 10 -5 0
-10 -4 -10 -10z"/>
</g>
</svg>
